<mxfile host="app.diagrams.net" modified="2022-03-17T08:53:15.243Z" agent="5.0 (Windows NT 10.0; Win64; x64) AppleWebKit/537.36 (KHTML, like Gecko) Chrome/97.0.4692.71 Safari/537.36" etag="YFWDthkVZRT82CWo8SKa" version="17.1.1" type="github">
  <diagram id="sC8Dn9gLM0qOhP2Wz6wK" name="第 1 页">
    <mxGraphModel dx="2062" dy="1122" grid="1" gridSize="10" guides="1" tooltips="1" connect="1" arrows="1" fold="1" page="1" pageScale="1" pageWidth="827" pageHeight="1169" math="0" shadow="0">
      <root>
        <mxCell id="0" />
        <mxCell id="1" parent="0" />
        <mxCell id="1xZW1lL9CZbo1leavQ0f-1" value="" style="rounded=0;whiteSpace=wrap;html=1;" vertex="1" parent="1">
          <mxGeometry x="330" y="400" width="180" height="130" as="geometry" />
        </mxCell>
        <mxCell id="1xZW1lL9CZbo1leavQ0f-4" value="" style="rounded=0;whiteSpace=wrap;html=1;" vertex="1" parent="1">
          <mxGeometry x="375" y="480" width="90" height="40" as="geometry" />
        </mxCell>
        <mxCell id="1xZW1lL9CZbo1leavQ0f-2" value="" style="shape=cross;whiteSpace=wrap;html=1;size=0;" vertex="1" parent="1">
          <mxGeometry x="402" y="485" width="36" height="30" as="geometry" />
        </mxCell>
      </root>
    </mxGraphModel>
  </diagram>
</mxfile>
